<?xml version="1.0" encoding="UTF-8" standalone="no"?>
<svg
   version="1.1"
   width="7.5in"
   height="7.5in"
   viewBox="0 0 540 540"
   xmlns="http://www.w3.org/2000/svg"
   xmlns:svg="http://www.w3.org/2000/svg">
  <path
     style="display:inline;fill:#ffffff"
     d="m 461.79053,140.83154 c -34.65646,0.74216 -65.82503,45.44601 -68.74658,51.70752 L 329.68799,328.33594 302.49609,270 c -13.07738,15.77928 -20.95801,36.02261 -21.01611,58.10449 l 33.09375,70.99512 h 30.22852 L 465.15527,140.89893 c -1.12437,-0.0703 -2.24679,-0.0913 -3.36474,-0.0674 z m -265.62012,0.0674 -54.16553,116.20605 54.12305,-12.92578 23.18848,-51.64014 23.04492,51.64014 h 48.09961 L 242.32031,140.89893 Z m -10.92334,116.18994 c -11.08629,0 -21.58619,2.49137 -30.95068,6.96386 -9.36479,4.4728 -17.5952,10.92851 -24.14209,18.8584 l 87.72363,-0.0132 23.3833,0.0132 c 11.08629,0 21.58766,-2.49137 30.95215,-6.96386 9.36479,-4.4728 17.5952,-10.92851 24.14209,-18.8584 l -76.86328,0.0103 c -11.41509,-0.0108 -22.83033,-0.0103 -34.24512,-0.0103 z m -61.28906,38.73047 -30.919924,66.33691 C 86.270693,376.67474 77.674934,388.9663 64.998047,398.41699 99.026513,391.5053 134.6415,375.92384 148.85889,345.58887 l 23.32617,-49.76953 z"
     />
</svg>
